# xmcd
#
# Track frame offsets: 
#        150
#        23122
#        35796
#        55499
#        62175
#        90828
#        109156
#        139739
#        167175
#        196050
#        212239
#        232747
#        255701
#        278948
#
# Disc length: 4327 seconds
#
# Revision: 0
# Processed by: cddbd v1.5.2PL0 Copyright (c) Steve Scherf et al.
# Submitted via: ExactAudioCopyFreeDBPlugin 1.0
#
DISCID=c710e50e
DTITLE=Louisiana Red - The Sky Is Crying 
DYEAR=2014
DGENRE=Blues
TTITLE0=Too Poor To Die
TTITLE1=Working Mule
TTITLE2=Champagne And Reefer
TTITLE3=Do You Got Balls?
TTITLE4=Same Thing
TTITLE5=Good Bye Jack Dupree
TTITLE6=What Is That She Got
TTITLE7=Keep On Playin' The Blues
TTITLE8=The Sky Is Crying
TTITLE9=Locked Up So Long
TTITLE10=I Wonder Who
TTITLE11=Early In The Morning
TTITLE12=You Done Quit Me
TTITLE13=I Done Woke Up
EXTD=
EXTT0=
EXTT1=
EXTT2=
EXTT3=
EXTT4=
EXTT5=
EXTT6=
EXTT7=
EXTT8=
EXTT9=
EXTT10=
EXTT11=
EXTT12=
EXTT13=
PLAYORDER=
